# xmcd
#
# Track frame offsets:
#  150
#  19705
#  42655
#  76214
#  103870
#  117826
#  132640
#  148677
#  164590
#  189433
#  204813
#  219915
#  237419
#
# Disc length: 3458 seconds
#
# Revision: 0
# Processed by: cddbd v1.5.2PL0 Copyright (c) Steve Scherf et al.
# Submitted via: AltoMP3_Maker 3.0
#
DISCID=b80d800d
DTITLE=Bueno Vista Social Club - Bueno Vista Social Club
DYEAR=1900
DGENRE=
TTITLE0=Chan Chan
TTITLE1=De Camino A La Vereda
TTITLE2=	El Cuarto De Tula
TTITLE3=	Pueblo Nuevo
TTITLE4=	Dos Gardenias
TTITLE5=	¿Y Tú Qué Has Hecho?
TTITLE6=	Veinte Años
TTITLE7=	El Carretero
TTITLE8=Candela
TTITLE9=	Amor De Loca Juventud
TTITLE10=	Orgullecida
TTITLE11=Murmullo
TTITLE12=Buena Vista Social Club
EXTD=
EXTT0=
EXTT1=
EXTT2=
EXTT3=
EXTT4=
EXTT5=
EXTT6=
EXTT7=
EXTT8=
EXTT9=
EXTT10=
EXTT11=
EXTT12=
PLAYORDER=
